<svg width="37" height="36" viewBox="0 0 37 36" fill="none" xmlns="http://www.w3.org/2000/svg">
<path d="M18.5 3C10.2148 3 3.5 9.71484 3.5 18C3.5 26.2852 10.2148 33 18.5 33C26.7852 33 33.5 26.2852 33.5 18C33.5 9.71484 26.7852 3 18.5 3ZM18.5 10.5C19.5354 10.5 20.375 11.3396 20.375 12.375C20.375 13.4104 19.5354 14.25 18.5 14.25C17.4646 14.25 16.625 13.4121 16.625 12.375C16.625 11.3379 17.4629 10.5 18.5 10.5ZM20.8438 25.5H16.1562C15.3828 25.5 14.75 24.873 14.75 24.0938C14.75 23.3145 15.3799 22.6875 16.1562 22.6875H17.0938V18.9375H16.625C15.8486 18.9375 15.2188 18.3076 15.2188 17.5312C15.2188 16.7549 15.8516 16.125 16.625 16.125H18.5C19.2764 16.125 19.9062 16.7549 19.9062 17.5312V22.6875H20.8438C21.6201 22.6875 22.25 23.3174 22.25 24.0938C22.25 24.8701 21.623 25.5 20.8438 25.5Z" fill="#505FEE"/>
</svg>
